<svg width="304" height="437" viewBox="0 0 304 437" fill="none" xmlns="http://www.w3.org/2000/svg">
<path d="M39.9999 321L156 437C155 426.833 157.3 402.2 174.5 385C146.5 357 93.5 312.5 153.5 252.5L117.5 216.5C99 232 81.0002 252 77.5 287C57.5 270.5 40.5002 216.5 76.5 180.5C127 130 152.5 107 117 63.4998L113.787 66.7125C106.97 73.5297 88.8243 91.6753 33.4999 147C-24.5 205 3.49995 284.5 39.9999 321Z" fill="black"/>
<path d="M263.5 116L147.5 0C148.5 10.1667 146.2 34.8 129 52C157 80 210 124.5 150 184.5L186 220.5C204.5 205 222.5 185 226 150C246 166.5 263 220.5 227 256.5C176.5 307 151 330 186.5 373.5L189.713 370.287C196.53 363.47 214.676 345.325 270 290C328 232 300 152.5 263.5 116Z" fill="black"/>
</svg>
