<?xml version="1.0" standalone="no"?>
<!DOCTYPE svg PUBLIC "-//W3C//DTD SVG 20010904//EN" "http://www.w3.org/TR/2001/REC-SVG-20010904/DTD/svg10.dtd">
<svg version="1.0" xmlns="http://www.w3.org/2000/svg" width="468pt" height="141pt" viewBox="0 0 468 141"
  preserveAspectRatio="xMidYMid meet">
  <g transform="translate(0,141) scale(0.011700,-0.011700)" fill="#d4d4d4" stroke="none">
    <path d="M11019 11326 c-4 -4 -107 -11 -230 -16 -123 -5 -305 -14 -404 -20
-99 -5 -223 -15 -275 -21 -52 -6 -149 -17 -214 -25 -66 -7 -183 -30 -260 -50
-78 -20 -182 -40 -232 -45 -54 -5 -119 -19 -159 -34 -38 -14 -117 -34 -176
-45 -59 -10 -134 -30 -167 -43 -33 -14 -93 -30 -134 -37 -40 -7 -98 -25 -128
-40 -31 -16 -74 -33 -96 -39 -22 -6 -79 -18 -126 -26 -46 -8 -140 -33 -209
-56 -68 -23 -163 -57 -210 -75 -48 -19 -120 -43 -161 -53 -41 -11 -114 -40
-164 -65 -63 -33 -130 -57 -229 -82 -77 -19 -178 -52 -225 -73 -47 -21 -96
-42 -110 -46 -14 -4 -38 -13 -55 -20 -16 -8 -61 -27 -100 -43 -38 -16 -95 -38
-125 -47 -30 -10 -96 -37 -146 -61 -49 -23 -119 -54 -155 -67 -35 -13 -113
-48 -174 -76 -60 -29 -117 -57 -125 -62 -8 -5 -33 -19 -55 -31 -22 -12 -67
-34 -101 -48 -33 -15 -85 -43 -115 -62 -30 -19 -67 -42 -84 -51 -16 -9 -106
-52 -199 -97 -94 -44 -177 -86 -185 -94 -9 -7 -77 -47 -151 -88 -74 -41 -164
-89 -199 -107 -35 -18 -78 -43 -95 -56 -17 -13 -63 -38 -101 -56 -39 -18 -81
-40 -95 -49 -14 -10 -74 -43 -133 -74 -59 -31 -133 -76 -165 -100 -31 -23 -88
-59 -127 -79 -38 -21 -83 -49 -100 -63 -16 -15 -70 -53 -120 -86 -49 -33 -110
-77 -135 -97 -25 -21 -76 -55 -115 -76 -38 -21 -95 -61 -125 -90 -30 -28 -89
-73 -130 -99 -41 -26 -93 -65 -115 -86 -22 -21 -65 -57 -95 -80 -30 -23 -88
-66 -128 -96 -41 -31 -99 -79 -130 -107 -32 -29 -91 -78 -132 -110 -41 -31
-105 -81 -141 -109 -37 -29 -116 -96 -175 -148 -60 -52 -129 -117 -154 -144
-25 -26 -109 -114 -188 -194 -79 -80 -171 -182 -204 -226 -34 -45 -89 -112
-122 -151 -34 -38 -87 -101 -118 -140 -31 -38 -75 -89 -96 -112 -22 -23 -57
-68 -78 -100 -21 -32 -58 -83 -80 -114 -23 -30 -51 -71 -62 -90 -10 -18 -42
-71 -69 -115 -27 -45 -58 -108 -68 -140 -10 -33 -25 -70 -33 -84 -8 -14 -25
-41 -38 -60 -13 -19 -34 -73 -48 -120 -13 -47 -34 -107 -46 -135 -12 -27 -28
-70 -35 -95 -8 -25 -17 -72 -20 -105 -4 -33 -23 -121 -42 -195 -35 -135 -35
-135 -30 -295 5 -142 11 -177 45 -315 22 -85 57 -200 78 -255 36 -92 45 -106
114 -176 42 -41 102 -93 135 -116 33 -22 90 -67 126 -100 35 -32 78 -64 94
-71 17 -6 68 -20 115 -31 47 -11 119 -32 160 -47 69 -24 96 -27 316 -36 230
-10 246 -9 340 11 55 12 154 26 222 31 97 8 139 16 196 39 42 17 110 34 160
40 49 6 102 18 119 27 18 10 52 27 77 40 25 12 72 27 105 34 33 6 95 27 137
46 43 19 114 41 159 49 45 8 89 21 98 29 9 7 31 21 50 31 19 9 61 26 95 37 34
11 113 45 176 75 63 31 176 85 250 120 74 36 160 78 190 93 30 15 72 33 93 40
22 7 64 27 95 44 32 18 76 44 100 59 23 15 65 36 94 48 28 11 57 18 65 15 7
-3 13 -19 13 -35 0 -16 -25 -91 -55 -165 -30 -75 -68 -162 -84 -194 -16 -32
-37 -84 -46 -116 -10 -35 -15 -77 -12 -102 2 -25 22 -74 48 -119 24 -42 57
-92 73 -111 16 -19 56 -55 90 -81 35 -27 87 -55 121 -66 33 -10 117 -23 188
-29 110 -10 140 -9 225 7 53 9 136 26 184 36 48 11 105 19 125 19 21 0 44 -4
52 -9 9 -6 11 -18 8 -32 -4 -15 -27 -36 -64 -58 -32 -19 -72 -47 -90 -62 -17
-15 -76 -59 -130 -98 -54 -39 -139 -102 -189 -139 -50 -37 -122 -92 -160 -123
-38 -30 -91 -70 -119 -89 -27 -19 -79 -61 -115 -95 -36 -34 -87 -77 -115 -95
-27 -19 -86 -66 -131 -105 -44 -38 -142 -115 -218 -170 -76 -55 -173 -127
-215 -161 -42 -33 -112 -86 -156 -117 -44 -31 -135 -99 -201 -149 -67 -51
-177 -135 -245 -187 -68 -52 -144 -113 -169 -136 -25 -22 -90 -73 -145 -112
-55 -39 -116 -88 -135 -108 -19 -20 -64 -58 -100 -83 -36 -25 -87 -67 -115
-94 -27 -26 -77 -66 -110 -89 -33 -23 -82 -61 -110 -84 -27 -23 -70 -55 -95
-72 -25 -17 -98 -79 -163 -137 -65 -59 -142 -121 -170 -140 -29 -18 -161 -128
-294 -244 -163 -143 -250 -226 -268 -256 -15 -25 -25 -55 -23 -67 2 -12 10
-27 19 -32 12 -8 29 -6 62 7 25 9 76 44 113 76 38 33 94 77 124 99 30 21 89
67 130 102 41 34 143 113 225 174 83 62 178 136 211 166 34 30 91 77 125 105
35 28 102 74 149 103 47 29 117 83 155 120 39 37 115 99 170 138 55 39 116 88
135 108 19 20 54 50 78 67 23 16 73 56 110 89 37 33 112 91 167 129 55 37 133
96 173 129 40 34 98 78 130 98 31 20 107 75 167 123 61 47 146 111 190 142 44
31 105 82 135 113 30 31 98 85 150 120 52 35 145 107 205 160 61 52 135 112
165 132 30 21 82 60 115 88 33 28 88 70 122 93 34 23 99 71 145 106 46 36 128
102 183 146 55 44 138 106 183 136 46 31 121 88 165 127 45 40 118 99 162 132
44 33 105 80 135 105 30 26 71 57 90 70 19 14 44 33 55 43 11 10 66 48 122 85
56 37 129 85 162 107 34 22 99 60 145 85 45 25 98 56 117 70 19 14 56 37 82
50 27 14 73 46 103 72 30 26 71 59 92 75 20 15 55 43 78 63 23 19 62 46 88 58
46 23 55 24 345 26 l297 2 68 32 c40 19 84 32 107 32 28 0 41 -5 49 -19 5 -11
10 -33 10 -50 0 -16 -16 -56 -35 -89 -26 -44 -40 -85 -55 -163 -11 -57 -20
-125 -20 -150 0 -25 7 -68 15 -96 8 -28 24 -62 36 -77 12 -15 42 -37 67 -50
26 -13 81 -33 123 -45 41 -11 102 -21 136 -21 33 0 82 7 109 15 27 9 118 20
202 25 85 5 163 12 175 16 12 3 57 22 100 41 43 19 115 44 160 54 55 13 110
36 168 69 48 28 89 50 92 50 3 0 43 22 89 49 46 28 112 70 148 95 36 25 112
70 170 99 58 30 179 93 270 140 135 71 183 103 266 175 55 48 145 116 200 151
54 35 137 90 184 121 47 31 113 71 147 89 34 17 74 31 88 31 14 0 25 -4 25 -8
0 -4 -14 -30 -31 -58 -18 -27 -78 -98 -135 -157 -57 -60 -104 -112 -104 -116
0 -5 -33 -36 -74 -71 -45 -37 -94 -90 -123 -133 -26 -40 -84 -110 -128 -157
-44 -47 -92 -110 -107 -140 -16 -31 -28 -72 -28 -93 0 -21 6 -50 14 -65 8 -15
25 -37 38 -48 12 -12 33 -27 45 -33 13 -6 61 -23 108 -36 47 -14 97 -25 111
-25 14 0 62 15 107 34 45 18 93 37 107 41 14 4 57 21 95 37 39 16 90 39 114
50 25 11 59 30 75 43 17 13 73 44 124 70 51 26 125 71 164 100 45 33 92 58
128 68 39 11 72 30 106 60 27 24 59 49 71 55 12 7 31 12 42 12 13 0 43 -28 87
-80 36 -44 79 -89 94 -100 16 -12 53 -28 82 -36 29 -9 76 -26 103 -39 46 -22
65 -24 260 -27 188 -3 231 0 405 25 107 16 249 41 315 58 66 16 143 29 170 29
28 0 95 11 150 24 55 13 138 29 185 35 47 5 126 23 175 39 57 18 123 31 180
35 50 4 119 15 153 26 34 11 88 25 120 30 31 6 113 15 181 21 89 8 146 19 206
41 71 25 98 29 183 29 85 0 103 3 125 21 15 11 32 37 38 58 10 32 8 45 -9 84
-13 30 -32 52 -54 64 -25 13 -53 18 -113 16 -44 0 -120 -8 -170 -17 -49 -9
-142 -16 -206 -16 -75 0 -133 -5 -165 -15 -39 -12 -81 -14 -204 -10 -85 3
-202 11 -260 16 -58 6 -143 17 -190 24 -47 8 -143 26 -215 40 -71 15 -168 38
-214 52 -46 14 -119 34 -162 44 -43 10 -107 31 -141 47 -35 16 -91 37 -126 47
-34 10 -77 31 -96 47 -25 20 -41 46 -56 92 -11 35 -30 72 -40 81 -11 10 -41
20 -67 22 -43 4 -54 0 -108 -37 -56 -39 -63 -42 -118 -38 -46 4 -83 17 -190
71 -72 36 -150 69 -172 73 -22 4 -49 11 -60 17 -11 6 -25 17 -32 26 -7 9 -12
30 -12 46 0 17 7 39 17 50 9 12 55 50 102 87 47 36 111 81 142 101 31 20 84
62 118 93 34 32 116 97 183 146 67 49 146 105 174 124 29 19 60 48 68 64 8 16
15 42 15 58 0 16 -10 44 -23 63 -14 20 -40 41 -69 53 -31 13 -56 17 -81 12
-24 -4 -59 -28 -109 -73 -40 -36 -98 -84 -128 -106 -30 -23 -87 -71 -125 -107
-39 -36 -133 -110 -209 -165 -76 -55 -159 -117 -183 -137 -24 -21 -48 -38 -53
-38 -4 0 -33 -20 -64 -45 -31 -25 -71 -52 -91 -60 -19 -8 -54 -15 -78 -15 -30
0 -56 8 -88 29 -25 16 -102 56 -172 89 -69 33 -149 76 -179 95 -29 19 -75 46
-103 60 -27 14 -74 35 -103 46 -29 12 -76 33 -105 47 -28 15 -90 56 -136 93
-47 36 -116 96 -155 132 -39 37 -91 79 -116 94 -25 15 -58 39 -74 52 -16 14
-53 55 -83 91 -29 37 -66 99 -83 137 -16 39 -38 88 -50 110 -11 21 -20 56 -20
77 0 29 8 47 36 77 19 22 56 50 82 62 26 13 65 40 87 60 22 21 87 85 145 143
58 58 120 120 138 138 18 18 75 74 127 123 51 50 124 115 160 145 37 30 113
100 169 155 55 55 121 116 145 135 25 19 61 49 80 65 20 17 59 49 86 71 28 22
82 60 120 84 39 24 77 49 85 56 8 6 44 26 80 44 36 17 92 45 125 62 33 17 86
49 117 70 32 21 95 51 140 67 46 16 128 46 183 65 55 20 145 58 200 85 55 28
120 56 145 64 25 8 65 20 90 27 25 6 65 19 90 27 25 9 68 28 95 44 28 15 84
37 125 48 41 12 113 39 160 62 47 23 117 52 155 66 39 13 108 40 155 59 47 18
119 43 160 53 41 11 138 42 215 70 77 27 178 63 223 80 46 17 116 38 155 47
40 9 91 25 115 35 23 11 63 28 88 40 25 11 80 29 122 41 42 11 91 24 107 28
17 5 53 15 80 23 28 8 77 26 111 40 33 14 89 32 125 41 35 8 99 19 142 25 48
7 110 25 159 46 46 21 115 41 166 49 48 8 114 26 147 40 33 14 103 32 155 41
52 9 120 23 150 32 30 9 98 29 150 45 52 16 127 33 165 38 39 5 106 16 150 25
44 9 112 24 150 35 39 11 156 33 260 50 105 17 224 37 265 45 41 8 136 23 210
34 74 12 175 25 225 31 49 6 144 22 210 36 80 17 178 28 295 33 105 6 213 17
270 29 52 12 151 24 220 27 69 4 211 17 315 30 105 13 253 27 330 30 77 3 158
10 180 16 22 6 121 15 220 21 99 6 205 11 235 11 30 0 118 -5 195 -11 77 -6
176 -20 220 -31 44 -11 98 -27 120 -36 22 -9 54 -23 72 -31 17 -8 36 -14 42
-14 6 0 34 -11 64 -24 29 -13 80 -44 113 -69 32 -25 73 -60 91 -79 18 -18 40
-51 50 -73 15 -33 17 -64 15 -179 -1 -97 -8 -163 -22 -222 -11 -46 -29 -103
-39 -126 -10 -24 -34 -68 -53 -98 -20 -30 -51 -90 -71 -133 -20 -43 -60 -106
-90 -140 -29 -34 -84 -109 -122 -167 -37 -58 -84 -129 -104 -159 -20 -30 -90
-109 -156 -176 -93 -95 -130 -125 -165 -137 -25 -8 -70 -23 -100 -33 -30 -10
-89 -36 -131 -57 -42 -21 -82 -38 -89 -38 -7 0 -77 -33 -154 -73 -78 -41 -161
-88 -186 -104 -25 -17 -72 -40 -105 -52 -33 -12 -93 -40 -133 -62 -40 -22
-105 -60 -143 -85 -38 -25 -128 -75 -200 -111 -72 -36 -159 -86 -194 -111 -35
-26 -100 -69 -146 -97 -46 -27 -103 -65 -128 -84 -24 -18 -72 -46 -105 -61
-34 -15 -76 -40 -95 -56 -19 -16 -71 -55 -115 -86 -45 -32 -115 -81 -156 -109
-41 -29 -88 -64 -105 -79 -16 -15 -52 -39 -79 -55 -28 -15 -68 -45 -90 -65
-23 -20 -72 -57 -111 -82 -38 -25 -98 -70 -132 -99 -33 -30 -99 -88 -145 -130
-45 -42 -103 -89 -128 -106 -25 -17 -58 -46 -75 -63 -16 -18 -48 -46 -70 -62
-21 -16 -105 -86 -185 -156 -80 -69 -215 -196 -300 -282 -86 -85 -182 -186
-215 -225 -33 -38 -87 -98 -121 -132 -37 -38 -86 -105 -124 -170 -35 -60 -82
-135 -104 -168 -36 -53 -41 -67 -41 -117 0 -42 5 -64 21 -85 11 -15 36 -38 54
-50 24 -17 48 -23 84 -23 43 0 71 10 157 53 57 28 118 58 134 64 17 7 61 33
98 57 38 24 81 49 95 54 15 6 53 18 86 28 32 10 71 27 85 39 14 12 80 49 146
82 66 33 134 67 150 76 17 9 57 28 89 42 32 14 85 46 116 70 32 24 82 65 111
91 30 25 87 61 127 80 41 18 103 54 139 79 36 25 96 61 133 80 38 19 94 58
125 87 32 29 65 57 74 62 9 5 56 41 105 80 48 38 116 91 151 116 34 25 89 65
121 89 33 25 65 51 72 58 7 7 66 52 130 99 64 48 141 110 169 139 29 29 94 85
145 125 51 39 116 98 143 130 28 31 66 67 85 78 19 11 87 76 151 144 64 68
147 148 185 178 38 30 112 102 164 158 52 57 145 154 206 215 61 62 169 165
241 231 71 65 149 142 173 172 23 29 68 77 100 106 31 29 77 70 101 91 24 21
85 57 134 81 50 23 108 47 130 53 22 6 85 24 140 41 55 16 120 35 145 41 25 6
109 24 188 41 79 16 159 30 178 30 19 0 62 -9 96 -21 33 -11 87 -38 118 -59
32 -22 68 -51 79 -66 12 -15 26 -44 32 -64 9 -30 8 -63 -5 -157 -9 -65 -22
-134 -28 -153 -6 -19 -33 -75 -61 -125 -27 -49 -62 -106 -77 -125 -15 -20 -40
-60 -56 -90 -15 -30 -50 -86 -79 -125 -28 -38 -62 -88 -77 -110 -14 -22 -61
-78 -103 -125 -43 -47 -90 -102 -106 -123 -15 -21 -66 -72 -113 -114 -48 -41
-86 -78 -86 -83 0 -4 -20 -33 -45 -63 -24 -30 -60 -65 -79 -76 -18 -12 -44
-36 -56 -54 -12 -17 -50 -54 -83 -82 -34 -27 -86 -76 -116 -109 -31 -32 -76
-72 -101 -89 -25 -17 -72 -55 -105 -86 -33 -31 -132 -113 -220 -183 -88 -70
-201 -160 -252 -200 -50 -40 -154 -122 -230 -183 -76 -60 -155 -126 -176 -146
-20 -20 -68 -55 -105 -77 -37 -23 -88 -58 -114 -79 -26 -21 -75 -60 -109 -88
-34 -27 -97 -83 -141 -122 -43 -40 -95 -82 -116 -94 -20 -12 -49 -37 -64 -57
-20 -25 -28 -47 -28 -74 0 -21 7 -52 15 -67 8 -16 29 -34 47 -42 18 -8 54 -14
79 -13 30 0 62 10 93 27 26 14 70 45 97 69 28 24 88 77 133 119 44 42 117 110
161 151 44 42 105 91 136 110 31 20 78 55 105 79 27 24 67 58 89 74 22 17 62
51 90 76 27 25 66 56 85 69 19 13 60 47 90 75 30 29 96 82 145 119 50 38 108
87 131 110 22 22 62 60 90 83 27 23 94 72 149 109 55 37 152 112 215 168 63
55 142 128 175 162 33 33 87 79 121 102 33 22 85 64 116 94 33 32 86 68 134
92 43 21 95 51 114 66 19 15 64 44 100 64 36 20 105 70 155 111 49 41 119 89
155 106 35 17 81 45 100 63 20 18 76 57 125 88 50 30 119 68 155 84 35 16 89
50 118 76 30 26 87 65 126 86 39 21 98 47 130 57 33 10 82 34 110 54 28 19 91
55 141 81 49 25 121 66 159 89 38 24 110 59 160 78 50 19 123 45 161 58 39 12
104 38 145 58 41 19 112 47 157 62 45 15 108 43 140 62 32 20 85 48 118 64 33
16 74 29 91 29 16 0 35 -5 42 -12 7 -7 12 -27 12 -45 0 -19 -6 -46 -14 -61 -8
-15 -32 -43 -53 -63 -21 -20 -54 -46 -73 -59 -19 -13 -79 -67 -132 -119 -53
-53 -150 -149 -215 -213 -65 -64 -148 -141 -184 -170 -36 -30 -176 -163 -310
-296 -134 -132 -262 -254 -284 -270 -22 -16 -64 -56 -92 -89 -29 -33 -92 -94
-140 -134 -49 -41 -128 -112 -177 -159 -49 -47 -143 -137 -208 -200 -65 -63
-130 -126 -144 -140 -15 -14 -106 -106 -203 -205 -97 -100 -201 -211 -231
-249 -30 -37 -60 -82 -67 -99 -6 -18 -12 -45 -12 -62 -1 -16 7 -46 17 -64 10
-22 34 -44 61 -58 27 -14 62 -23 90 -23 25 0 85 11 133 24 48 13 105 34 126
47 22 13 73 44 114 68 40 24 99 62 132 84 32 22 102 59 155 81 53 23 131 60
173 84 42 23 105 61 140 85 35 24 101 63 148 86 47 24 135 75 195 115 61 40
137 88 170 106 33 18 98 56 145 83 47 27 135 79 195 115 61 37 137 87 170 112
33 26 80 58 105 72 25 14 55 29 68 33 13 4 54 25 90 46 37 22 114 62 171 89
57 28 136 75 175 104 39 30 114 76 166 103 52 27 136 76 185 109 50 33 113 73
140 89 28 15 57 33 65 40 8 7 74 45 145 85 72 39 135 77 140 83 6 7 21 21 35
30 13 9 34 17 47 17 12 0 25 -5 28 -11 4 -5 -18 -35 -49 -66 -31 -30 -81 -85
-110 -122 -30 -36 -89 -100 -133 -141 -44 -41 -110 -101 -147 -133 -36 -33
-81 -80 -98 -105 -17 -26 -77 -94 -131 -152 -55 -58 -132 -148 -170 -200 -39
-52 -78 -102 -87 -110 -9 -8 -33 -36 -54 -62 -20 -25 -54 -86 -74 -135 -28
-69 -36 -102 -37 -153 0 -52 5 -71 23 -97 12 -17 47 -44 77 -58 53 -26 58 -27
207 -23 122 3 165 8 213 25 33 11 98 32 145 47 47 14 108 40 135 56 28 16 97
52 155 80 57 29 132 63 165 77 33 14 112 52 175 85 63 32 144 75 179 94 47 25
75 34 100 32 31 -3 36 -7 39 -31 3 -24 -9 -41 -80 -111 -46 -45 -95 -105 -110
-132 -23 -42 -28 -68 -34 -157 -6 -97 -5 -109 12 -128 10 -12 37 -30 60 -39
22 -10 66 -23 98 -30 43 -9 79 -9 149 0 51 6 123 18 161 26 38 8 101 19 140
24 41 5 100 22 138 40 39 17 100 35 145 41 43 6 101 18 128 26 28 9 55 19 60
23 6 4 53 21 105 38 52 16 134 41 181 56 48 15 145 56 215 91 113 57 136 65
185 65 46 0 63 -5 97 -29 22 -16 43 -35 47 -40 3 -6 24 -20 46 -32 22 -11 68
-29 102 -40 35 -11 114 -24 182 -29 66 -5 138 -14 160 -21 23 -6 64 -9 95 -5
30 3 105 12 167 20 61 8 129 20 151 26 22 5 119 19 216 30 96 11 197 27 223
36 26 9 67 25 91 35 23 11 73 27 110 36 37 8 104 26 148 39 45 13 92 24 103
24 12 0 32 -10 45 -23 14 -14 30 -51 41 -97 10 -41 26 -91 36 -110 9 -20 37
-54 61 -77 25 -22 62 -46 84 -54 21 -7 68 -13 104 -13 36 1 121 3 190 6 69 3
170 13 225 21 55 9 152 23 215 32 63 9 143 20 177 26 35 5 102 25 150 43 49
18 113 39 143 46 30 6 75 17 100 23 25 5 88 33 140 60 52 27 102 55 110 62 8
7 51 31 95 54 44 22 113 52 154 67 41 14 102 41 136 60 39 21 75 34 99 34 20
0 76 -15 124 -34 48 -18 110 -38 137 -45 28 -6 100 -22 160 -35 61 -13 148
-29 195 -35 47 -6 144 -18 215 -26 72 -8 206 -15 298 -15 127 0 186 -4 249
-19 46 -10 137 -21 202 -25 65 -3 166 -14 224 -23 92 -14 122 -14 226 -4 108
11 129 11 196 -5 46 -10 124 -18 200 -19 69 -1 193 -7 275 -13 83 -6 191 -21
240 -32 76 -19 104 -21 180 -14 50 5 151 7 225 5 74 -1 213 -11 308 -22 95
-10 197 -19 227 -19 29 0 84 -6 122 -14 37 -8 138 -19 223 -26 85 -6 216 -18
290 -26 74 -9 198 -22 275 -30 77 -9 219 -19 315 -24 153 -7 185 -11 255 -36
l80 -28 357 -2 c331 -2 361 -3 420 -23 45 -15 91 -21 163 -22 55 0 125 -2 155
-2 30 -1 98 5 150 13 52 8 124 14 160 14 36 -1 97 -5 135 -9 64 -6 73 -5 105
17 26 18 35 31 35 53 0 22 -8 33 -34 49 -32 19 -51 20 -325 18 -173 -1 -315 3
-351 9 -33 6 -100 17 -150 26 -49 8 -180 18 -290 23 -110 4 -249 13 -310 19
-60 6 -126 15 -145 21 -19 5 -99 18 -178 30 -80 11 -195 20 -260 20 -64 0
-169 7 -232 15 -63 9 -162 23 -220 31 -58 9 -166 19 -240 24 -74 4 -198 17
-275 29 -77 11 -216 29 -310 41 -93 11 -262 25 -375 30 -113 5 -255 10 -317
10 -61 0 -147 7 -190 15 -43 9 -143 23 -223 31 -80 9 -251 19 -380 24 -129 4
-242 11 -250 14 -8 3 -112 8 -230 10 -181 4 -225 8 -280 25 -42 14 -104 23
-175 26 -61 2 -135 9 -164 15 -30 5 -108 10 -175 10 -66 0 -163 5 -214 10 -51
6 -144 23 -206 39 -62 16 -142 33 -177 36 -35 4 -86 13 -113 21 -27 8 -108 45
-181 83 -72 38 -147 72 -166 76 -21 4 -47 1 -70 -9 -20 -8 -49 -32 -65 -53
-16 -21 -41 -51 -56 -68 -14 -16 -53 -45 -85 -64 -32 -18 -95 -58 -140 -88
-45 -30 -117 -67 -160 -83 -43 -15 -107 -39 -143 -53 -36 -14 -94 -32 -130
-41 -36 -10 -87 -24 -115 -32 -27 -8 -75 -21 -105 -29 -30 -7 -116 -25 -190
-39 -74 -14 -173 -31 -219 -37 -66 -10 -120 -10 -264 0 -100 7 -189 17 -200
22 -10 6 -27 25 -37 42 -11 18 -20 43 -20 57 0 14 9 39 19 56 10 17 35 41 54
53 20 12 66 32 104 45 37 13 97 37 133 54 36 17 124 57 195 88 72 31 161 67
199 80 37 13 99 41 136 63 37 21 97 48 133 60 42 14 89 40 128 72 34 27 90 63
123 79 34 16 95 55 136 87 41 31 83 64 92 73 9 8 42 35 74 60 32 25 81 68 109
96 38 37 55 62 63 96 7 26 12 58 12 72 0 14 -7 43 -16 65 -9 22 -30 51 -47 64
-18 13 -66 39 -107 57 -59 26 -92 34 -155 38 -54 2 -118 -3 -195 -17 -93 -17
-135 -30 -220 -72 -58 -28 -136 -67 -175 -86 -38 -20 -72 -39 -75 -43 -3 -4
-44 -30 -91 -58 -52 -31 -128 -90 -196 -154 -61 -57 -148 -134 -192 -172 -45
-37 -98 -89 -119 -113 -20 -25 -65 -76 -100 -114 -40 -44 -77 -99 -104 -154
-23 -47 -54 -97 -70 -111 -16 -13 -39 -26 -51 -29 -12 -2 -56 -13 -97 -24 -41
-10 -111 -29 -155 -41 -44 -11 -132 -39 -195 -60 -63 -21 -140 -43 -170 -49
-30 -6 -134 -17 -230 -26 -96 -9 -215 -21 -265 -26 -49 -6 -115 -13 -146 -16
-36 -3 -76 0 -112 11 -32 9 -92 16 -145 16 -80 0 -94 3 -117 23 -23 19 -25 26
-16 49 5 15 34 44 63 66 29 21 89 55 133 74 44 19 114 56 155 82 41 25 79 46
85 46 6 0 41 24 77 53 37 28 108 76 160 106 51 30 129 75 173 100 44 26 118
72 165 104 47 31 112 77 145 101 33 25 90 63 126 85 36 22 86 64 110 93 25 29
56 69 70 88 19 29 24 47 24 102 0 57 -4 70 -25 93 -14 15 -38 34 -54 42 -16 9
-51 16 -76 16 -35 1 -67 -9 -131 -40 -46 -23 -121 -55 -166 -72 -44 -18 -98
-46 -120 -62 -21 -17 -64 -46 -95 -64 -31 -18 -94 -62 -140 -98 -46 -35 -121
-91 -168 -124 -51 -35 -173 -145 -305 -275 -177 -174 -242 -231 -335 -293 -63
-42 -140 -88 -170 -102 -30 -14 -92 -37 -137 -53 -45 -15 -106 -42 -135 -58
-29 -17 -100 -48 -158 -70 -58 -21 -142 -46 -186 -55 -45 -9 -136 -37 -203
-61 -66 -25 -149 -50 -183 -56 -35 -5 -101 -23 -147 -40 -56 -21 -126 -36
-210 -46 -97 -12 -134 -13 -163 -5 -27 9 -40 19 -44 36 -3 14 -3 37 0 53 4 15
37 56 75 92 37 36 75 78 85 94 10 16 37 49 59 73 22 24 74 68 117 97 42 30 83
60 91 68 8 8 41 32 74 54 33 22 78 52 100 66 22 14 58 36 80 48 22 13 90 56
150 96 61 39 137 88 170 108 33 20 96 53 140 75 44 21 96 53 115 70 19 18 64
46 100 64 36 17 90 52 120 77 30 25 74 58 97 73 31 19 45 37 54 66 9 29 9 47
0 74 -7 19 -24 43 -38 52 -19 13 -40 16 -80 13 -44 -4 -65 -13 -111 -46 -31
-23 -91 -59 -133 -81 -42 -21 -94 -52 -116 -68 -22 -15 -80 -46 -129 -67 -49
-22 -115 -59 -146 -82 -32 -23 -72 -48 -90 -56 -18 -7 -64 -29 -103 -49 -38
-20 -97 -50 -130 -67 -33 -17 -157 -78 -276 -136 -118 -58 -219 -106 -224
-106 -5 0 -56 -23 -114 -50 -58 -28 -135 -66 -171 -85 -36 -18 -130 -66 -210
-105 -80 -40 -171 -80 -204 -91 -32 -10 -63 -19 -67 -19 -5 0 -35 -13 -67 -28
-31 -15 -102 -51 -157 -79 -55 -29 -113 -57 -130 -63 -16 -7 -66 -18 -110 -26
-44 -8 -99 -14 -122 -14 -30 0 -49 6 -63 20 -11 11 -20 26 -20 33 0 6 9 31 20
55 11 24 41 71 67 105 25 34 60 80 77 102 17 22 82 98 145 170 63 71 180 198
260 280 80 83 180 191 222 240 41 50 102 113 134 140 32 28 94 86 139 130 45
44 104 105 132 135 27 30 97 97 154 148 58 51 121 102 140 113 19 12 51 36 70
53 20 17 51 42 70 56 19 14 49 38 67 54 19 16 41 42 49 57 7 15 14 43 14 61 0
18 -9 48 -20 66 -11 18 -37 40 -56 48 -23 10 -48 13 -68 8 -17 -3 -44 -16 -61
-28 -16 -11 -55 -44 -86 -72 -31 -28 -87 -68 -125 -89 -38 -21 -96 -56 -128
-77 -32 -22 -73 -46 -90 -55 -17 -9 -33 -19 -36 -23 -3 -3 -25 -20 -50 -37
-25 -17 -56 -34 -69 -38 -14 -4 -76 -36 -139 -71 -63 -36 -137 -84 -166 -108
-28 -24 -89 -64 -136 -88 -47 -24 -113 -62 -145 -84 -33 -22 -91 -58 -130 -79
-38 -21 -124 -71 -190 -110 -66 -40 -176 -104 -245 -143 -69 -38 -196 -113
-283 -165 -88 -53 -190 -108 -227 -122 -38 -15 -88 -40 -112 -56 -24 -17 -79
-54 -123 -83 -44 -30 -118 -75 -165 -101 -47 -27 -144 -88 -217 -136 -73 -49
-155 -100 -183 -114 -28 -14 -76 -42 -106 -61 -31 -20 -91 -52 -133 -71 -42
-19 -103 -49 -136 -66 -33 -16 -85 -46 -115 -66 -30 -21 -95 -59 -145 -85 -49
-27 -115 -66 -145 -86 -31 -20 -92 -56 -136 -79 -44 -22 -93 -41 -107 -41 -16
0 -27 6 -27 13 0 8 13 32 29 53 16 21 61 71 100 109 38 39 117 115 176 170 58
55 144 136 189 180 46 44 164 157 261 250 97 94 254 247 348 341 95 94 247
239 338 322 91 82 205 192 252 243 48 52 113 112 144 133 32 22 81 66 108 98
28 32 71 74 97 93 25 20 82 75 125 123 43 48 112 133 152 190 40 56 86 132
102 167 20 41 31 80 31 109 0 24 -8 61 -18 81 -9 20 -28 44 -41 52 -14 9 -43
16 -66 16 -29 0 -63 -11 -111 -36 -38 -21 -81 -37 -95 -37 -14 0 -44 -5 -66
-11 -22 -6 -76 -28 -120 -49 -44 -21 -114 -50 -155 -64 -41 -15 -113 -44 -160
-65 -47 -21 -101 -42 -120 -46 -19 -4 -64 -23 -100 -42 -36 -19 -94 -45 -130
-59 -36 -14 -141 -68 -235 -121 -93 -53 -190 -108 -215 -123 -25 -15 -63 -37
-85 -48 -22 -12 -86 -41 -143 -66 -57 -25 -120 -57 -140 -73 -20 -15 -73 -50
-117 -77 -44 -27 -113 -66 -154 -88 -41 -22 -95 -57 -120 -77 -25 -21 -68 -51
-96 -66 -27 -16 -75 -48 -106 -72 -31 -24 -96 -64 -144 -89 -49 -24 -92 -44
-97 -44 -4 0 -8 4 -8 8 0 5 10 20 21 33 12 13 37 56 55 96 20 42 65 108 108
159 41 48 87 110 104 138 16 28 49 84 73 124 24 40 56 96 70 124 15 28 31 81
37 117 6 36 14 121 18 188 6 112 5 127 -16 185 -12 35 -40 85 -61 112 -22 27
-64 71 -95 98 -31 27 -73 57 -94 68 -21 11 -68 31 -105 45 -37 14 -80 25 -96
25 -16 0 -64 -8 -107 -19 -42 -10 -129 -26 -192 -36 -81 -12 -144 -28 -214
-56 -66 -27 -111 -39 -135 -37 -25 2 -37 8 -39 21 -2 10 -1 29 2 42 3 12 32
52 63 87 32 36 94 114 138 173 56 76 87 131 106 184 15 42 43 108 63 147 19
39 44 111 55 160 11 49 27 109 36 133 8 24 15 57 15 74 0 17 -7 71 -16 121 -9
50 -27 127 -40 171 -14 44 -41 113 -59 153 -24 50 -53 91 -91 129 -31 30 -79
65 -108 78 -28 13 -80 34 -116 46 -36 12 -99 38 -140 57 -67 31 -91 36 -225
48 -82 8 -184 18 -225 23 -41 6 -190 8 -330 5 -140 -3 -304 -12 -365 -20 -60
-7 -148 -16 -195 -20 -47 -3 -135 -14 -196 -25 -62 -10 -143 -23 -180 -29 -38
-6 -150 -15 -249 -20 -99 -5 -238 -18 -310 -29 -71 -11 -179 -24 -238 -30 -60
-6 -112 -13 -117 -16 -5 -3 -53 -10 -108 -15 -54 -5 -132 -18 -173 -29 -41
-11 -146 -29 -234 -41 -88 -11 -198 -26 -245 -34 -47 -8 -173 -31 -280 -51
-107 -20 -235 -45 -285 -55 -49 -9 -119 -24 -155 -33 -36 -8 -102 -20 -148
-26 -45 -6 -104 -20 -130 -31 -26 -12 -81 -30 -122 -41 -41 -11 -109 -29 -150
-39 -41 -10 -136 -30 -210 -45 -74 -15 -178 -42 -230 -61 -52 -18 -122 -41
-155 -49 -33 -9 -139 -36 -235 -61 -96 -24 -240 -67 -320 -95 -80 -28 -201
-69 -270 -91 -69 -22 -170 -56 -225 -75 -55 -19 -118 -42 -140 -50 -22 -8 -74
-24 -116 -34 -42 -11 -148 -49 -235 -85 -87 -36 -195 -77 -239 -91 -44 -13
-111 -40 -150 -58 -38 -18 -113 -45 -165 -60 -52 -15 -117 -37 -145 -49 -27
-12 -77 -31 -109 -41 -33 -10 -94 -35 -135 -56 -42 -20 -142 -60 -223 -87 -80
-28 -204 -77 -275 -110 -70 -33 -152 -65 -180 -73 -29 -7 -56 -9 -60 -5 -4 4
5 31 20 59 15 29 77 111 138 182 61 72 135 166 164 210 29 44 77 114 105 155
28 41 96 165 151 275 54 110 105 221 113 247 8 26 20 110 27 186 10 112 10
152 0 203 -8 38 -39 116 -77 194 -46 94 -87 159 -148 235 -46 58 -125 145
-177 194 -68 65 -110 97 -158 118 -36 16 -75 34 -86 40 -11 6 -63 33 -115 59
-52 26 -122 54 -155 62 -33 9 -87 19 -120 23 -33 4 -105 22 -160 41 -94 33
-112 35 -285 43 -102 5 -225 12 -275 16 -49 3 -93 3 -96 0z m271 -191 c85 -8
202 -23 260 -34 58 -10 176 -37 263 -60 87 -22 204 -60 260 -84 56 -24 132
-63 167 -87 36 -24 101 -80 145 -124 45 -45 106 -119 136 -166 31 -47 73 -125
93 -175 21 -49 42 -108 48 -130 5 -23 7 -85 3 -145 -4 -58 -13 -135 -20 -172
-8 -41 -33 -103 -66 -165 -29 -54 -75 -141 -101 -193 -27 -52 -58 -111 -69
-130 -12 -19 -38 -60 -57 -90 -19 -30 -76 -109 -125 -175 -50 -66 -144 -185
-210 -265 -66 -80 -135 -158 -153 -175 -17 -16 -52 -55 -76 -85 -25 -30 -89
-100 -144 -156 -60 -60 -133 -123 -184 -156 -47 -30 -128 -79 -180 -108 -52
-30 -118 -69 -147 -87 -29 -18 -55 -33 -58 -33 -3 0 -29 -19 -58 -41 -29 -23
-75 -56 -102 -74 -28 -17 -77 -56 -110 -86 -33 -30 -82 -71 -110 -91 -27 -20
-88 -76 -135 -124 -47 -49 -99 -102 -115 -119 -17 -16 -44 -48 -60 -69 -17
-21 -42 -60 -57 -85 -15 -25 -40 -73 -56 -106 -17 -33 -37 -76 -45 -96 -8 -20
-38 -63 -65 -96 -28 -33 -81 -83 -119 -111 -37 -27 -97 -78 -132 -112 -36 -34
-90 -79 -120 -100 -31 -21 -67 -50 -81 -65 -14 -15 -45 -41 -70 -58 -25 -17
-76 -56 -114 -86 -38 -31 -106 -90 -150 -131 -45 -42 -106 -95 -136 -119 -30
-23 -82 -65 -115 -93 -33 -28 -101 -84 -152 -124 -51 -41 -104 -90 -119 -109
-14 -19 -56 -55 -93 -79 -38 -24 -88 -62 -114 -84 -25 -22 -57 -42 -72 -46
-17 -4 -36 -1 -55 10 -16 10 -36 35 -46 56 -11 26 -32 48 -59 64 -33 19 -56
24 -106 24 -35 0 -86 -6 -114 -14 -27 -8 -84 -28 -125 -44 -41 -17 -102 -41
-135 -53 -46 -17 -75 -38 -125 -88 -36 -37 -89 -101 -117 -144 -29 -42 -62
-96 -74 -119 -19 -38 -21 -54 -16 -139 4 -78 11 -109 36 -167 17 -39 31 -78
31 -87 0 -9 -5 -25 -10 -36 -6 -10 -46 -44 -90 -74 -43 -31 -100 -75 -127 -99
-26 -24 -62 -52 -80 -63 -17 -10 -62 -42 -100 -71 -37 -29 -104 -77 -148 -107
-44 -30 -134 -87 -200 -126 -66 -40 -151 -91 -190 -115 -38 -23 -97 -55 -130
-72 -33 -16 -76 -34 -95 -40 -19 -6 -66 -20 -105 -33 -38 -12 -74 -25 -80 -29
-5 -5 -59 -25 -120 -46 l-110 -37 -230 -8 c-137 -4 -247 -4 -273 2 -24 5 -78
29 -120 53 -42 24 -86 56 -97 70 -16 22 -21 46 -23 114 -3 78 -1 91 23 132 14
25 33 61 42 80 9 19 19 70 23 112 5 60 13 87 34 119 15 22 58 74 96 115 38 41
83 101 100 133 18 33 53 82 79 109 25 27 78 69 116 92 39 23 84 54 102 69 17
14 53 39 80 56 26 16 80 52 118 79 39 28 95 71 125 97 31 26 94 72 140 103 47
31 114 78 149 106 35 27 86 69 114 92 27 24 82 68 122 98 39 30 98 75 130 100
33 25 86 70 120 101 33 31 83 71 110 88 28 17 71 59 98 94 27 35 54 85 63 115
15 50 15 57 -1 99 -14 36 -29 53 -78 84 -33 22 -78 44 -101 50 -22 6 -58 8
-80 5 -22 -4 -73 -20 -113 -36 -40 -16 -103 -52 -140 -80 -36 -27 -71 -50 -77
-50 -6 0 -29 -9 -51 -21 -22 -12 -58 -38 -80 -58 -22 -21 -51 -45 -64 -54 -14
-9 -71 -58 -129 -109 -57 -51 -161 -155 -231 -232 -69 -76 -152 -168 -185
-205 -32 -36 -73 -82 -90 -101 -17 -19 -48 -58 -68 -86 -20 -29 -44 -67 -54
-85 -9 -19 -39 -56 -65 -84 -26 -27 -61 -68 -77 -91 -17 -23 -55 -63 -86 -89
-31 -27 -84 -64 -118 -83 -35 -18 -133 -70 -218 -115 -85 -44 -207 -106 -270
-137 -63 -32 -178 -88 -255 -125 -77 -37 -183 -85 -235 -107 -52 -22 -135 -59
-185 -83 -49 -25 -121 -56 -160 -70 -38 -15 -97 -37 -130 -50 -33 -13 -94 -33
-135 -45 -41 -13 -109 -38 -151 -56 -42 -19 -130 -48 -195 -65 -66 -17 -132
-35 -149 -39 -16 -5 -61 -17 -100 -28 -38 -11 -101 -25 -140 -31 -38 -6 -113
-23 -165 -38 l-95 -27 -303 1 c-255 2 -312 5 -355 19 -29 9 -56 20 -62 24 -5
4 -39 17 -75 30 -36 13 -81 30 -100 38 -19 8 -55 24 -79 35 -24 11 -75 46
-115 77 -39 31 -82 76 -96 99 -14 23 -36 59 -49 79 -13 20 -43 78 -66 127 -23
50 -49 113 -58 140 -9 28 -19 70 -22 96 -4 25 -2 119 4 210 8 119 19 196 40
279 15 63 34 142 42 175 7 33 27 96 44 140 18 44 38 105 45 135 7 30 20 75 28
100 9 25 36 81 61 125 24 44 69 128 98 188 29 59 62 118 73 130 11 13 42 50
68 84 26 33 82 104 124 156 43 53 82 99 88 102 6 3 35 41 66 83 31 42 68 90
83 105 14 15 46 58 71 95 25 37 71 88 103 113 32 26 84 81 116 123 32 42 99
113 147 158 49 44 105 92 124 107 19 14 76 64 125 111 50 47 126 113 170 148
44 35 106 84 138 109 32 26 66 57 74 70 9 13 46 45 82 71 36 25 95 73 132 107
36 34 81 67 100 75 18 7 52 27 74 44 22 16 56 44 75 61 19 18 60 47 90 65 30
18 91 59 135 91 44 32 119 87 167 121 48 35 115 78 148 97 33 19 68 41 77 50
10 9 39 33 64 53 25 21 63 45 85 54 21 9 82 44 134 78 52 35 133 82 180 105
47 24 92 49 100 56 8 7 48 30 89 51 41 20 100 55 130 77 31 21 97 58 146 82
50 24 115 57 145 73 30 17 89 47 130 67 41 20 82 43 90 50 8 7 58 36 110 65
52 29 194 103 315 164 121 62 270 131 330 155 61 24 144 63 186 87 42 24 79
44 82 44 4 0 93 34 199 75 106 42 223 89 259 105 36 15 94 34 130 40 35 7 89
19 119 27 30 8 75 24 100 35 25 11 52 26 60 33 8 7 56 31 105 53 50 21 124 47
165 56 41 10 129 37 195 61 66 24 163 57 215 73 52 17 126 36 164 42 38 6 92
20 120 32 28 11 75 29 105 39 30 10 65 19 78 19 14 0 57 13 96 29 40 15 104
34 142 40 39 7 104 23 145 36 41 13 120 31 175 40 55 8 127 22 160 30 33 7
117 28 186 44 69 17 162 35 205 40 43 6 167 15 274 20 107 6 240 16 295 21 55
6 194 15 309 20 115 6 212 12 214 15 3 3 30 5 61 5 31 0 126 -7 211 -15z
m8568 -2925 c-5 -17 -42 -65 -81 -107 -40 -42 -117 -114 -172 -161 -55 -47
-122 -109 -150 -137 -27 -28 -66 -69 -85 -91 -19 -21 -80 -81 -135 -133 -55
-52 -153 -150 -218 -219 -65 -69 -135 -138 -155 -154 -20 -16 -81 -72 -136
-125 -54 -52 -125 -112 -158 -133 -32 -21 -78 -58 -101 -81 -23 -23 -65 -57
-94 -75 -28 -19 -78 -58 -110 -87 -32 -30 -94 -79 -138 -110 -44 -31 -100 -72
-125 -92 -25 -19 -67 -50 -95 -68 -27 -19 -68 -46 -90 -60 -22 -15 -80 -56
-130 -92 -49 -35 -121 -83 -160 -106 -38 -23 -101 -65 -140 -94 -38 -29 -86
-60 -105 -70 -19 -10 -51 -30 -70 -44 -19 -14 -55 -42 -80 -63 -25 -20 -101
-66 -170 -101 -69 -35 -156 -76 -195 -92 -38 -15 -92 -38 -118 -52 -27 -13
-69 -39 -95 -57 -26 -18 -91 -56 -146 -85 -70 -37 -107 -51 -130 -49 -26 2
-32 8 -34 31 -2 18 6 42 21 65 14 21 55 71 91 112 36 41 106 127 155 191 50
64 102 127 118 139 15 12 67 59 116 105 48 46 120 110 160 141 39 32 115 98
167 149 52 50 121 109 153 130 32 21 76 61 97 89 20 29 53 66 73 83 20 17 64
48 99 68 35 20 97 70 138 110 42 40 101 86 135 103 33 17 83 51 110 76 28 26
74 60 103 76 29 17 87 62 128 100 41 38 107 88 147 111 40 23 103 62 140 87
37 24 96 56 130 69 34 14 78 37 97 51 19 14 65 52 101 84 50 44 82 63 131 78
35 11 88 38 118 60 30 23 101 63 158 90 56 27 128 65 160 84 32 19 94 54 138
77 43 23 144 75 223 116 79 40 153 73 163 73 10 0 18 5 18 10 0 6 9 10 19 10
18 0 19 -3 9 -30z m11018 -571 c8 -6 14 -24 14 -39 0 -18 -14 -44 -36 -71 -20
-24 -62 -62 -93 -85 -31 -22 -97 -67 -146 -99 -50 -32 -106 -71 -125 -86 -19
-15 -62 -41 -95 -57 -33 -17 -105 -51 -160 -77 -55 -25 -147 -68 -205 -95 -58
-27 -157 -72 -220 -101 -63 -28 -127 -53 -141 -56 -15 -3 -30 1 -38 10 -10 13
-9 21 2 44 8 15 48 60 89 98 41 39 125 111 187 160 63 50 132 108 155 129 22
22 71 59 109 83 37 25 98 58 135 75 37 17 101 51 142 74 54 31 113 53 210 78
78 21 149 34 168 31 19 -2 40 -9 48 -16z m-9479 -235 c-3 -3 -12 -4 -19 -1 -8
3 -5 6 6 6 11 1 17 -2 13 -5z m-11138 -516 c10 -24 21 -56 25 -72 4 -16 20
-48 36 -71 15 -22 79 -93 142 -156 62 -64 140 -135 173 -157 33 -23 96 -71
140 -108 44 -36 94 -72 110 -81 17 -9 62 -40 101 -70 52 -39 93 -60 150 -78
47 -15 124 -52 189 -91 61 -36 135 -78 165 -93 30 -16 80 -36 110 -46 30 -10
67 -24 81 -31 15 -7 29 -21 33 -30 3 -9 -3 -29 -15 -46 -12 -16 -44 -39 -73
-52 -28 -12 -64 -26 -81 -30 -16 -4 -66 -31 -110 -60 -44 -29 -98 -64 -120
-77 -22 -12 -130 -83 -240 -156 -110 -73 -231 -155 -270 -182 -38 -26 -133
-83 -210 -126 -77 -42 -155 -88 -173 -102 -17 -13 -83 -49 -145 -80 -61 -31
-166 -86 -232 -122 -66 -37 -190 -101 -275 -143 -85 -43 -196 -91 -245 -107
-50 -17 -157 -41 -238 -56 -105 -18 -184 -25 -270 -25 -97 0 -130 4 -163 19
-22 10 -50 31 -62 46 -16 19 -22 42 -22 75 0 25 7 71 16 101 10 31 45 96 85
154 38 55 95 123 127 151 31 28 83 71 114 97 31 25 72 52 90 60 18 8 49 17 69
21 19 3 58 20 85 38 27 17 81 45 119 63 39 18 96 42 128 55 32 13 64 28 70 35
7 6 35 28 63 47 28 20 69 45 91 57 22 11 54 32 72 46 22 19 31 35 31 57 0 16
-5 39 -11 51 -6 12 -23 35 -38 50 -14 16 -38 35 -53 43 -15 8 -52 14 -82 14
-31 0 -84 -10 -118 -21 -35 -12 -115 -49 -178 -81 -63 -33 -149 -78 -191 -101
-42 -23 -110 -73 -150 -110 -41 -38 -101 -88 -134 -111 -33 -24 -74 -50 -91
-59 -17 -9 -73 -23 -125 -32 -52 -9 -127 -21 -166 -25 -40 -5 -87 -13 -105
-19 -18 -6 -77 -20 -132 -31 -54 -11 -120 -20 -147 -20 -36 0 -54 5 -70 21
-14 14 -18 27 -13 42 3 12 12 32 20 45 8 12 24 28 35 35 11 6 38 35 59 64 22
29 75 78 117 111 43 32 92 67 109 78 17 10 72 50 123 88 50 38 91 73 91 77 0
5 42 40 93 78 50 38 103 81 117 96 14 15 59 52 100 83 41 31 116 93 165 137
50 44 117 102 150 128 33 26 75 65 93 87 18 22 59 57 90 79 31 21 66 49 77 61
11 12 45 39 75 60 30 21 69 52 85 70 17 18 56 50 88 72 33 22 110 87 172 143
63 57 133 118 156 134 24 18 55 31 71 31 24 0 31 -6 47 -42z m-3263 -433 c4
-9 1 -29 -6 -45 -7 -16 -24 -37 -39 -46 -14 -10 -55 -42 -91 -73 -35 -31 -82
-72 -103 -90 -21 -19 -61 -53 -90 -74 -29 -21 -75 -60 -103 -86 -28 -25 -69
-60 -90 -77 -22 -17 -67 -46 -99 -63 -33 -17 -82 -47 -109 -66 -26 -19 -52
-35 -57 -35 -5 0 -9 5 -9 12 0 6 21 35 48 63 26 29 76 87 112 129 36 42 93 99
128 127 34 28 75 66 90 84 15 18 72 63 127 100 55 38 120 85 145 106 25 20 52
39 60 42 8 3 30 6 48 6 20 1 35 -5 38 -14z m1265 -714 c16 -13 23 -29 23 -54
0 -31 -10 -47 -64 -105 -36 -39 -108 -115 -160 -171 -52 -56 -109 -111 -126
-121 -17 -11 -43 -20 -58 -20 -14 0 -35 9 -45 19 -11 11 -23 36 -27 56 -4 24
-1 50 10 80 11 28 46 72 99 127 46 45 107 103 136 128 30 25 68 53 85 62 17 9
47 17 67 18 22 0 46 -8 60 -19z m4041 -148 c64 -35 133 -69 155 -75 21 -5 50
-19 66 -30 15 -11 32 -28 38 -40 6 -11 8 -31 5 -44 -4 -16 -31 -40 -78 -70
-39 -25 -82 -60 -96 -77 -15 -18 -45 -50 -67 -72 -22 -22 -67 -56 -99 -75 -32
-19 -91 -60 -131 -91 -40 -32 -99 -71 -131 -87 -33 -16 -88 -40 -123 -53 -35
-12 -93 -42 -129 -66 -36 -24 -74 -43 -83 -43 -9 0 -50 -24 -90 -53 -41 -29
-99 -64 -129 -76 -30 -13 -76 -36 -102 -53 -26 -16 -63 -34 -83 -39 -20 -6
-50 -7 -66 -4 -16 4 -34 15 -39 26 -8 13 -6 29 5 56 9 21 53 76 99 123 46 47
94 101 107 120 12 19 50 67 84 105 33 39 73 90 89 115 15 25 51 63 79 85 28
22 73 60 101 85 27 25 67 69 88 98 22 30 79 93 127 141 47 48 103 99 123 115
21 16 55 34 75 41 21 8 49 11 63 8 14 -3 77 -35 142 -70z m778 -293 c36 -16
79 -31 95 -35 17 -4 50 -14 75 -23 25 -9 70 -31 100 -50 30 -18 64 -35 75 -37
11 -3 52 -9 90 -14 39 -5 131 -21 205 -36 79 -16 160 -38 195 -55 33 -16 70
-38 83 -50 22 -21 22 -23 6 -41 -9 -10 -30 -23 -48 -28 -17 -6 -98 -22 -181
-35 -82 -13 -226 -36 -320 -51 -93 -14 -208 -32 -255 -40 -47 -7 -134 -16
-195 -20 -60 -3 -144 -1 -186 4 -42 6 -115 23 -161 39 -47 17 -98 37 -115 45
-17 9 -33 24 -37 32 -3 9 -6 31 -6 48 0 19 10 43 23 58 12 15 60 58 107 96 47
39 96 83 110 98 14 15 55 47 92 72 37 25 80 48 95 53 16 5 42 6 58 3 17 -3 59
-18 95 -33z" />
  </g>
</svg>